<?xml version="1.0" encoding="UTF-8" standalone="no"?><!DOCTYPE svg PUBLIC "-//W3C//DTD SVG 1.1//EN" "http://www.w3.org/Graphics/SVG/1.1/DTD/svg11.dtd"><svg width="100%" height="100%" viewBox="0 0 1280 192" version="1.1" xmlns="http://www.w3.org/2000/svg" xmlns:xlink="http://www.w3.org/1999/xlink" xml:space="preserve" xmlns:serif="http://www.serif.com/" style="fill-rule:evenodd;clip-rule:evenodd;stroke-linejoin:round;stroke-miterlimit:2;"><g><path d="M911.342,182.758l-0,-85.016c-0,-0.571 -0.463,-1.034 -1.034,-1.034l-21.933,0c-0.571,0 -1.033,-0.462 -1.033,-1.029l-0,-24.708c-0,-0.567 0.462,-1.029 1.033,-1.029l77.317,-0c0.57,-0 1.033,0.462 1.033,1.029l0,24.708c0,0.567 -0.463,1.029 -1.033,1.029l-21.246,0c-0.567,0 -1.029,0.463 -1.029,1.034l-0,85.016c-0,0.575 -0.467,1.034 -1.034,1.034l-30.008,-0c-0.571,-0 -1.033,-0.459 -1.033,-1.034Z" style="fill:#9e0d1c;fill-rule:nonzero;"/><path d="M971.763,69.942c-0.575,-0 -1.038,0.462 -1.038,1.029l-0,71.891c-0,29.538 18.579,43.038 48.808,43.038c25.846,0 51.809,-10.267 51.809,-42.571l-0,-72.358c-0,-0.567 -0.459,-1.029 -1.03,-1.029l-30.241,-0c-0.571,-0 -1.033,0.429 -1.033,1c0.029,7.496 0.204,54.875 -0.005,68.462c-0.229,15 -7.229,19.842 -17.766,19.842c-8.08,-0 -18.229,-3.459 -18.229,-20.075l-0,-68.2c-0,-0.567 -0.463,-1.029 -1.034,-1.029l-30.241,-0Z" style="fill:#9e0d1c;fill-rule:nonzero;"/><path d="M1070.89,182.592l18.325,-112.475c0.087,-0.496 0.516,-0.867 1.02,-0.867l33.913,0c0.446,0 0.842,0.292 0.983,0.717l18.154,56.416c0.309,0.959 1.667,0.95 1.967,-0.008l17.725,-56.633c0.133,-0.429 0.533,-0.721 0.983,-0.721l33.904,-0c0.509,-0 0.938,0.366 1.021,0.867l18.33,112.679c0.104,0.629 -0.384,1.196 -1.017,1.196l-31.804,-0c-0.517,-0 -0.959,-0.384 -1.021,-0.9l-7.375,-57.088c-0.142,-1.079 -1.646,-1.238 -2,-0.204l-19.784,57.525c-0.145,0.412 -0.537,0.696 -0.979,0.696l-19.058,-0c-0.442,-0 -0.837,-0.284 -0.979,-0.705l-19.167,-56.716c-0.346,-1.025 -1.837,-0.892 -1.996,0.179l-8.441,56.362c-0.08,0.505 -0.513,0.88 -1.021,0.88l-30.671,-0c-0.633,-0 -1.117,-0.571 -1.012,-1.2Z" style="fill:#9e0d1c;fill-rule:nonzero;"/><path d="M1233.9,161.437c-0.883,8.921 2.287,12.221 3.275,14.521c0.65,1.513 1.267,3.713 2.975,4.08c1.3,0.283 3.158,-0.43 4.308,0.008c0.688,0.267 1.359,0.766 1.788,1.325c0.654,0.866 1.529,0.596 2.304,1.141c0.996,0.705 2.108,-0.554 3.163,-0.754c2.358,-0.45 4.441,1.525 6.879,1.846c1.033,0.129 3.02,0.004 3.866,-0.367c2.525,-1.133 3.571,-2.612 6.184,-3.495c1.979,-0.663 2.554,-3.15 3.437,-4.975c1.904,-3.95 3.196,-7.542 4.825,-11.538c1.604,-3.946 0.509,-5.929 1.104,-10.112l-0.012,-0.363c-0.221,-1.258 -1.067,-10.433 -0.634,-9.687c-0.595,-1.021 -1.429,-2.759 -2.245,-3.679c-1.5,-1.684 -0.696,-4.305 -1.892,-6.246c-1.312,-2.121 -4.058,-1.813 -6.271,-2.559c-0.508,-0.171 -1.171,-0.708 -1.704,-0.841c-1.621,-0.396 -3.404,0.254 -4.929,0.995c-4.538,2.213 -9.625,1.163 -13.063,5.48c-2.991,3.766 -8.308,3.425 -8.537,7.479c-0.109,1.921 -2.142,1.767 -2.479,3.871c0.491,-3.117 -4.15,10.683 -2.342,14.333l-0,-0.463Z" style="fill:#9e0d1c;fill-rule:nonzero;"/><path d="M35.938,47.883c-4.484,-1.346 -12.975,-0.104 -13.505,2.696c-0.162,0.913 -2.375,-0.079 -3.441,0.354c-1.605,0.65 -5.492,5.23 -5.667,6.1c-0.125,0.605 -2.208,1.096 -2.325,1.7l0.696,3c-3.692,13.213 -2.504,26.05 -3.433,39.359l-1.734,2.421c-0.85,12.162 -1.271,23.17 -1.429,35.891c-0.037,3.079 -0.183,6.167 -0.571,9.171l-0.808,0.754c0.45,3.675 -2.363,16.421 -1.992,21.571l-1.046,0.575c-0.42,3.008 -0.558,4.133 -0.683,7.062c-0.146,3.596 5.825,4.988 7.746,6.25c4.283,2.838 4.65,-0.041 14.754,-1.937c1.137,-0.217 1.558,-0.358 2.463,-1.192l0.462,-1.383c1.996,-1.854 4.187,-3.542 5.617,-5.758c1.837,-2.842 2.304,-4.967 2.637,-8.234l-0.696,-1.27c0.438,-4.33 1.667,-5.888 2.254,-11.463c0.088,-0.858 1.08,-1.204 1.738,-0.65c2.196,1.846 5.35,2.429 6.879,3.479c2.083,1.421 5.013,0.384 7.729,-0.262l1.388,0.691c1.471,-0.346 1.492,-0.816 2.671,-0.479c9.908,2.8 11.858,-3.196 18.816,-8.441c-0.396,0.299 2.317,-0.196 2.534,0.766c1.308,5.742 -0.034,8.404 -0.404,13.988c-0.092,1.383 -0.659,2.8 -0.534,4.687l0.809,1.733c0.312,4.55 -0.251,7.53 2.316,9.9c3.213,2.971 4.096,9.23 7.95,10.225c2.717,0.709 5.971,-0.312 8.654,-0.516l0.459,-0.808c1.654,0.704 5.491,1.037 6.808,0.97l1.033,0.805c2.855,-0.159 0.267,-0.301 2.317,0.3c1.167,-4.321 4.604,-4.301 6.142,-8.088c1.5,-3.712 2.5,-11.771 0.3,-14.696c-0.575,-0.762 0.029,-2.062 -0.621,-2.779l-1.496,-0.342c-1.325,-1.454 -2.342,-1.929 -2.608,-3.496c-0.921,-5.487 -0.104,-9.37 -0.13,-14.908l-1.041,-0.804c-0.088,-18.442 4.179,-36.971 -0.225,-58.508c-0.058,-0.284 -0.246,-0.559 -0.488,-0.717c-1.904,-1.233 -3.383,-1.608 -5.383,-1.879l-0.458,-1.034c-4.913,-0.65 -5.384,0.521 -15.067,4.205c-3.237,1.225 -5.213,4.296 -7.633,6.916c-0.55,0.592 -0.842,0.275 -1.338,0.905l-1.041,0.458c-6.134,7.7 -8,18.258 -14.838,25.775c-0.271,-0.775 -1.113,-0.738 -1.362,-1.508l0.112,-1.734c-4.817,-14.712 -6.417,-29.658 -10.617,-44.075l-1.379,-1.504c-2.5,-8.579 -4.716,-19.117 -6.108,-20.296c-1.321,-1.121 -2.379,-2.233 -4.604,-2.904l-0.58,-1.042Z" style="fill:#9e0d1c;fill-rule:nonzero;"/><path d="M238.246,115.171c0.221,-8.158 0.9,-28.771 2.571,-27.809c10.291,-2.32 1.841,-7.129 10.804,-4.512c0.408,0.112 1.096,-1.325 1.796,-1.421c4.316,-0.596 8.412,-2.483 12.962,-0.317c5.4,2.571 10.571,5.984 12.534,11.334c4.095,11.15 8.05,22.175 13.12,32.729c3.255,6.779 5.959,14.121 10.829,20.104c0.526,0.65 1.642,0.417 1.834,-0.396c2.954,-12.487 -2.709,-31.016 -5.804,-40.337c-0.605,-1.825 -3.396,-3.729 -4.875,-5.613c-0.717,-0.908 -0.988,-1.725 -1.013,-6.029l0.804,-2.075c-0.012,-2.375 -0.925,-2.983 0.125,-4.204c1.6,-1.854 3.871,-4.342 6.625,-5c4.438,-1.067 7.4,-4.937 13.78,-3.471c0.999,0.229 2.712,-2.246 3.779,-1.725c7.958,3.9 7.487,12.459 9.562,20.396c0.408,1.55 2.433,3.304 2.779,4.842c2.263,9.85 5.146,18.62 6.796,28.525c1.983,11.945 -1.592,22.487 -4.067,34.025c-0.562,2.604 -2.112,4.079 -3.445,6.27l-0.229,2.309c-1.338,2.187 -2.221,2.775 -3.759,4.983c-3.404,4.879 -7.708,6.484 -13.054,6.554l-1.042,-1.154c-2.854,0.033 -5.658,0.104 -8.425,-0.066l-1.383,0.933c-1.483,-0.1 -3.954,1.342 -4.408,-0.067c-0.929,-2.925 -7.396,0.284 -23.88,-21.387c-0.441,-0.575 -1.325,-0.55 -1.733,0.05c-2.775,4.066 -0.404,10.804 -2.604,12.562c-3.629,2.896 -5.992,9.129 -11.004,9.313c-2.45,0.087 -2.992,0.458 -5.521,0.516l-1.383,-0.804c-1.246,0.025 -1.534,-0.142 -2.884,-0.083l-0.575,1.15c-3.15,0.129 -7.154,-0.313 -10.141,-0.988c-0.375,-0.083 -0.663,-0.371 -0.771,-0.741c-1.704,-5.825 -2.071,-12.196 -1.504,-17.625l1.383,-1.384c1.029,-9.854 2.125,-15.912 1.446,-22.854c-0.5,-5.192 1.242,-4.329 0.891,-24.687l-0.916,-1.846Z" style="fill:#9e0d1c;fill-rule:nonzero;"/><path d="M353.454,42.721c-3.875,-2.034 -7.25,-3.392 -10.15,-6.592c-1.946,-2.154 -3.208,-6.379 -2.625,-9.512c0.896,0.25 1.729,-0.554 1.592,-1.038c-0.417,-1.425 1.083,-1.25 0.083,-3.287c2.963,-2.03 5.263,-3.75 8.729,-5.167l2.25,0.113c3.205,-3.692 6.842,-2.638 6.896,-2.621c7.796,2.025 15.217,0.333 22.071,5.808c1.767,1.408 4.287,1.087 5.938,0.033c4.625,-2.941 7.312,-7.771 13.933,-11.804l0.687,-1.383c0.421,-0.25 3.179,-0.738 4.446,-2.025c1.55,-1.588 20.934,-2.55 20.788,2.596c-0.067,2.333 -1.092,6.062 -1.975,9.037c-1.113,3.709 -5.43,5.821 -7.421,9.263c-1.325,2.287 -9.084,5.808 -15.079,10.504l-1.271,0.983c-0.113,0.083 -0.442,1.813 -0.575,1.863c-9.358,3.587 -16.913,5.741 -24.571,6.604l-5.275,1.458c-0.1,0.029 -0.187,0.042 -0.292,0.042c-2.45,-0.004 -6.929,-0.688 -9.158,-0.417c-3.683,0.463 -3.937,-2.525 -7.517,-4.404l-1.504,-0.054Z" style="fill:#9e0d1c;fill-rule:nonzero;"/><path d="M346.196,151.288c0.05,5.183 1.037,0.583 1.817,5.812c0.358,2.438 -0.367,7.308 0.449,9.838c0.4,1.229 1.259,5.483 1.596,6.795c1.396,5.388 4.088,8.909 9.288,11.534c2.442,1.233 5.225,1.991 7.375,3.737l0.479,0.163c0.967,0.091 4.371,0.891 3.279,1.087c10.975,-1.962 19.367,4.859 22.284,-1.275c1.091,-2.304 3.391,-0.508 4.862,-2.025c4.983,-5.129 10.021,-12.421 13.567,-18.862c0.462,-0.834 0.958,-2 1.358,-3.017c0.633,-1.629 1.942,-3.004 2.525,-4.704c1.717,-5.029 2.338,-10.025 4.354,-14.921c0.125,-0.296 1.654,-1.029 1.879,-0.862c1.921,1.487 4.292,6.658 5.667,12.654c0.083,0.383 -0.142,0.716 -0.412,0.991c-0.609,0.629 -0.93,2.604 -1.017,2.763c-2.167,3.858 1.412,6.829 1.629,10.916c0.3,5.555 3.042,10.721 6.112,15.434c0.205,0.321 0.58,0.454 0.963,0.442c2.858,-0.155 4.983,2.637 7.187,2.249c2.996,-0.537 2.042,1.521 16.521,-0.766c2.304,-0.359 1.467,-4.671 5.388,-5.7c0.271,-0.067 1.575,-4.321 3.717,-5.813c1.712,-1.187 1.195,-6.641 1.304,-6.479c-0.83,-1.258 -0.088,-9.754 -0.396,-15.479c-0.058,-1.133 -2.429,-0.654 -2.871,-1.929c-2.479,-7.075 -5.171,-9.688 -7.821,-16.129c-1.537,-3.734 -3.496,-6.309 -4.662,-10.292c-0.65,-2.238 -4.167,-4.954 -3.721,-6.879c0.683,-2.954 -2.309,-0.004 -6.208,-18.704c-0.296,-1.421 -5.896,-21.125 -7.034,-21.184c-1.066,-0.058 -0.342,-3.545 -3.966,-5.5c-4.751,-2.554 -11.821,-0.929 -16.988,-0.854c0.05,1.075 -1.788,1.246 -1.383,2.534c-2.721,0.191 -3.442,1.025 -5.517,2.454c-1.983,1.362 -3.383,3.404 -3.879,5.912c-1.329,6.738 -2.042,12.988 -3.371,19.729c-3.004,15.229 -5.296,26.713 -10.667,40.771c-1.316,3.438 -1.937,10.154 -4.9,12.613c-1.354,1.125 -2.204,-0.125 -2.379,-2.113c-0.612,-7.021 -1.529,-10.4 -3.391,-17.367c-0.521,-1.962 -0.501,-7.129 -0.063,-9.429c0.742,-3.875 -0.3,-8.066 -0.758,-11.971c-0.588,-4.929 2.754,-8.762 1.516,-13.783c-0.283,-1.146 -0.529,-0.954 -0.12,-1.812c3.02,-6.367 2.329,-18.375 1.008,-21.005c-0.721,-1.42 -1.446,-0.595 -2.979,-1.229c-5.9,-2.429 -14.321,-2.479 -20.492,-0.816c-0.917,0.246 -1.904,2.333 -2.662,3.396c-2.042,2.862 -5.084,3.758 -5.838,6.966c-2.95,12.554 -2.525,26.734 -3.108,39.179c-0.259,5.504 0.541,11.03 0.591,16.584l-0.112,6.346Z" style="fill:#9e0d1c;fill-rule:nonzero;"/><path d="M651.517,104.958c-0,0.875 -0.992,1.367 -1.663,0.809c-4.596,-3.825 -13.504,-9.634 -21.916,-9.642c-14.721,-0.021 -30.805,9.825 -30.513,31.817c0.313,23.937 17.075,30.746 31.367,30.475c9.571,-0.184 15.216,-4.234 21.05,-8.971c0.675,-0.546 1.687,-0.075 1.687,0.796l-0.033,28.704c-0,0.367 -0.2,0.721 -0.513,0.908c-8.933,5.409 -17.216,7.208 -30.825,7.229c-32.1,0.046 -55.816,-24.658 -56.254,-59.304c-0.508,-40.458 33.667,-59.275 56.367,-60.112c10.862,-0.405 22.587,1.345 30.667,5.512c0.35,0.179 0.558,0.546 0.558,0.938l0.021,30.841Z" style="fill:#9e0d1c;fill-rule:nonzero;"/><path d="M545.212,98.179c-0.291,0.571 -1.02,0.725 -1.533,0.325c-5.271,-4.087 -11.821,-6.754 -18.637,-6.754c-5.434,0 -12.671,3.162 -12.671,9.5c-0,6.633 7.996,9.196 13.121,10.854l7.541,2.259c15.838,4.679 28.054,12.675 28.054,31.074c0,11.313 -2.716,22.926 -11.766,30.617c-8.9,7.542 -20.813,10.708 -32.275,10.708c-14.013,0 -27.738,-4.612 -39.196,-12.433c-0.442,-0.304 -0.583,-0.896 -0.333,-1.366l11.629,-21.876c0.308,-0.579 1.067,-0.716 1.567,-0.291c7.183,6.096 15.608,10.933 25.279,10.933c6.937,0 14.325,-3.467 14.325,-11.467c-0,-8.291 -11.613,-11.162 -17.946,-12.97c-18.554,-5.28 -30.771,-10.105 -30.771,-32.125c-0,-23.075 16.442,-38.159 39.217,-38.159c11.133,0 24.683,3.417 34.712,8.863c0.5,0.271 0.675,0.896 0.417,1.396l-10.734,20.912Z" style="fill:#9e0d1c;fill-rule:nonzero;"/><path d="M690.508,121.004l2.867,0c9.65,0 20.512,-1.812 20.512,-14.183c0,-12.359 -10.862,-14.171 -20.512,-14.171l-2.867,0l0,28.354Zm62.913,62.742l-34.142,-0c-0.354,-0 -0.679,-0.179 -0.871,-0.475l-27.6,-43.263l-0.3,0l0,42.709c0,0.566 -0.462,1.029 -1.033,1.029l-27.5,-0c-0.567,-0 -1.029,-0.463 -1.029,-1.029l-0,-111.663c-0,-0.567 0.462,-1.029 1.029,-1.029l43.163,-0c22.474,-0 39.516,10.708 39.516,34.992c0,15.158 -8.171,28.345 -23.287,31.8c-0.734,0.17 -1.075,1.008 -0.617,1.604l33.492,43.666c0.521,0.68 0.037,1.659 -0.821,1.659Z" style="fill:#9e0d1c;fill-rule:nonzero;"/><path d="M787.221,183.746l-27.5,-0c-0.567,-0 -1.029,-0.463 -1.029,-1.029l-0,-111.663c-0,-0.567 0.462,-1.029 1.029,-1.029l27.5,-0c0.571,-0 1.033,0.462 1.033,1.029l0,111.663c0,0.566 -0.462,1.029 -1.033,1.029Z" style="fill:#9e0d1c;fill-rule:nonzero;"/><path d="M829.896,122.212l4.975,0c10.708,0 21.267,0 21.267,-13.879c-0,-14.329 -9.805,-14.479 -21.267,-14.479l-4.975,0l-0,28.358Zm-29.563,-51.158c0,-0.567 0.463,-1.029 1.029,-1.029l44.217,-0c24.438,-0 41.329,11.312 41.329,37.404c0,26.846 -14.479,38.613 -40.271,38.613l-15.712,-0c-0.567,-0 -1.029,0.462 -1.029,1.033l-0,35.642c-0,0.566 -0.463,1.029 -1.033,1.029l-27.501,-0c-0.566,-0 -1.029,-0.463 -1.029,-1.029l0,-111.663Z" style="fill:#9e0d1c;fill-rule:nonzero;"/><path d="M176.704,124.117c-1.267,3.033 -9.404,-1.513 -12.746,-5.117c-0.866,-0.942 1.338,-1.517 1.534,-2.633c0.933,-5.175 1.433,-10.217 3.762,-14.809c0.392,-0.766 1.571,-0.666 1.884,0.134c1.458,3.783 2.287,7.329 3.354,10.933l0.92,0.696c1.434,4.841 2.088,8.887 1.292,10.796Zm51.763,-7.079c-0.6,0.012 -1.138,-1.3 -1.879,-1.484c-9.284,-2.396 -10.326,0.742 -16.388,3.134c-0.575,0.224 -1.258,-0.113 -1.412,-0.713c-4.738,-18.388 -5.117,-39.45 -20.688,-52.538c-8.992,-7.554 -21.304,-1.875 -29.333,5.242c-5.163,4.579 -11.342,6.75 -14.709,12.7c-1.254,2.225 -4.962,4.296 -4.816,6.538c0.787,11.92 -2.221,22.679 -6.509,33.533c-0.995,2.529 -6.154,4.604 -7.096,8.162c-0.983,3.667 1.763,5.384 2.546,8.851c0.284,1.283 -0.075,0.579 -0.775,2.899l0.579,0.925c-0.516,1.717 -1.462,3.409 -2.137,5.563c-2.658,8.45 -5.537,18.658 -2.937,27.354c0.229,0.75 1.654,2.7 2.3,2.729c2.083,0.096 8.854,-0.083 9.908,-1.5l0.583,1.038c4.808,0.233 9.371,0.358 9.933,-0.033c1.346,-0.934 1.113,-3.646 3.459,-5.451l3.804,-2.075c0.604,-0.466 -0.592,-1.158 0.112,-1.325c2.113,-0.491 1.642,-14.437 5.121,-19.341c0.45,-0.646 7.05,-0.313 11.004,-0.488c0.334,-0.016 0.609,-0.191 0.792,-0.466c6.4,1.237 6.875,1.329 13.275,2.566c0.092,0.442 0.204,0.909 0.367,1.434l0.925,0.462c3.008,9.8 4.275,19.829 9.862,28.313l-0.108,2.191c1.021,1.55 1.629,2.209 3.008,3.575c1.721,1.692 6.375,1.721 9.521,1.629l0.925,0.925c2.113,-0.058 3.171,-1.125 5.183,-1.687c2.825,-0.796 0.859,2.625 7.851,1.858c-0.834,-2.116 0.745,-3.912 1.604,-4.721c2.029,-1.9 6.066,-4.791 6.379,-9.091l-0.688,-1.038c0.167,-2.329 -0.271,-5.271 -1.775,-7.52c-0.712,-1.055 -0.362,-2.455 -1.025,-3.517l-1.158,-0.458c-5,-7.955 -8.608,-15.255 -8.654,-23.967c-0.008,-2.1 9.142,-2.55 9.575,-4.413c1.554,-6.633 7.85,-2.775 10.65,-14.12c2.108,-8.559 -3.904,-5.767 -7.179,-5.675Z" style="fill:#9e0d1c;fill-rule:nonzero;"/></g></svg>